<svg width="74" height="31" viewBox="0 0 74 31" fill="none" xmlns="http://www.w3.org/2000/svg">
<rect x="0.5" y="0.5" width="73" height="30" rx="15" fill="#0F0F0F" stroke="#CDF564"/>
<path d="M21.728 14.192V13.104C21.36 12.96 20.96 12.96 20.464 12.96C20.24 12.96 20.016 12.976 19.776 13.024C19.536 13.072 19.312 13.136 19.088 13.232C18.88 13.328 18.672 13.44 18.496 13.584C18.32 13.728 18.192 13.92 18.096 14.128H18.064V13.216H16.832V20H18.064V16.112C18.064 15.808 18.112 15.52 18.208 15.248C18.304 14.992 18.432 14.768 18.624 14.576C18.8 14.368 19.04 14.224 19.312 14.112C19.584 14.016 19.904 13.952 20.288 13.952C20.768 13.952 21.392 14.016 21.728 14.192ZM29.1956 17.904H27.9156C27.8036 18.352 27.5796 18.704 27.2276 18.928C26.8756 19.152 26.4276 19.264 25.8836 19.264C25.4516 19.264 25.0836 19.2 24.7636 19.072C24.4596 18.944 24.2036 18.784 23.9956 18.56C23.7876 18.352 23.6436 18.112 23.5476 17.84C23.4676 17.568 23.4196 17.264 23.4356 16.96H29.3236C29.3396 16.544 29.3076 16.096 29.1956 15.632C29.0836 15.152 28.8916 14.72 28.6196 14.32C28.3316 13.936 27.9636 13.6 27.4996 13.344C27.0356 13.088 26.4596 12.96 25.7556 12.96C25.2276 12.96 24.7316 13.056 24.2676 13.232C23.8196 13.408 23.4356 13.664 23.0996 13.984C22.7796 14.32 22.5236 14.688 22.3316 15.136C22.1556 15.584 22.0596 16.064 22.0596 16.592C22.0756 17.136 22.1716 17.616 22.3316 18.08C22.4756 18.528 22.7156 18.912 23.0356 19.232C23.3556 19.568 23.7396 19.808 24.2036 20C24.6676 20.176 25.2116 20.256 25.8356 20.256C26.7316 20.256 27.4676 20.064 28.0596 19.664C28.6516 19.264 29.0356 18.688 29.1956 17.904ZM27.9476 15.952H23.4356C23.4516 15.68 23.5156 15.424 23.6276 15.184C23.7396 14.944 23.8996 14.736 24.0916 14.56C24.2836 14.368 24.5076 14.24 24.7796 14.128C25.0516 14.032 25.3556 13.968 25.6916 13.968C26.0116 13.968 26.2996 14.032 26.5716 14.128C26.8436 14.24 27.0836 14.368 27.2756 14.544C27.4676 14.72 27.6276 14.928 27.7556 15.184C27.8676 15.424 27.9316 15.68 27.9476 15.952ZM30.7383 13.216V22.704H31.9703V19.152H32.0023C32.1943 19.536 32.5143 19.824 32.9623 20C33.3943 20.176 33.8743 20.256 34.3863 20.256C34.9623 20.256 35.4743 20.16 35.9063 19.968C36.3383 19.76 36.6903 19.488 36.9783 19.152C37.2663 18.816 37.4743 18.432 37.6183 17.984C37.7623 17.552 37.8423 17.072 37.8423 16.576C37.8423 16.08 37.7623 15.616 37.6343 15.184C37.4903 14.736 37.2823 14.352 36.9943 14.016C36.7063 13.696 36.3543 13.44 35.9223 13.248C35.4903 13.056 34.9943 12.96 34.4183 12.96C34.2423 12.96 34.0343 12.976 33.8103 13.008C33.5703 13.056 33.3463 13.104 33.1223 13.184C32.9143 13.264 32.6903 13.376 32.4983 13.52C32.3063 13.664 32.1303 13.84 32.0023 14.048H31.9703V13.216H30.7383ZM36.4023 17.616C36.3063 17.92 36.1623 18.208 35.9703 18.448C35.7943 18.688 35.5543 18.88 35.2503 19.024C34.9623 19.168 34.6102 19.248 34.2103 19.248C33.7943 19.248 33.4423 19.168 33.1543 19.008C32.8663 18.864 32.6263 18.656 32.4503 18.416C32.2582 18.16 32.1303 17.888 32.0503 17.568C31.9703 17.248 31.9223 16.928 31.9223 16.608C31.9223 16.272 31.9703 15.936 32.0503 15.616C32.1463 15.296 32.2743 15.008 32.4663 14.768C32.6583 14.528 32.8983 14.336 33.2023 14.176C33.5063 14.032 33.8583 13.952 34.2903 13.952C34.7063 13.952 35.0743 14.032 35.3463 14.192C35.6343 14.336 35.8743 14.544 36.0343 14.8C36.2103 15.056 36.3383 15.344 36.4183 15.664C36.4983 15.984 36.5303 16.32 36.5303 16.656C36.5303 16.992 36.4823 17.312 36.4023 17.616ZM39.0265 16.64C39.0265 17.152 39.1065 17.632 39.2665 18.064C39.4105 18.512 39.6505 18.896 39.9705 19.216C40.2745 19.552 40.6585 19.808 41.1225 19.984C41.5705 20.176 42.0985 20.256 42.7065 20.256C43.2985 20.256 43.8265 20.176 44.2905 19.984C44.7385 19.808 45.1225 19.552 45.4425 19.216C45.7465 18.896 45.9865 18.512 46.1465 18.064C46.2905 17.632 46.3705 17.152 46.3705 16.64C46.3705 16.128 46.2905 15.648 46.1465 15.216C45.9865 14.768 45.7465 14.384 45.4425 14.048C45.1225 13.728 44.7385 13.472 44.2905 13.28C43.8265 13.088 43.2985 12.992 42.7065 12.992C42.0985 12.992 41.5705 13.088 41.1225 13.28C40.6585 13.472 40.2745 13.728 39.9705 14.048C39.6505 14.384 39.4105 14.768 39.2665 15.216C39.1065 15.648 39.0265 16.128 39.0265 16.64ZM40.3385 16.64C40.3385 16.224 40.4025 15.84 40.5305 15.52C40.6425 15.184 40.8185 14.912 41.0265 14.688C41.2505 14.464 41.4905 14.288 41.7785 14.176C42.0665 14.064 42.3705 14 42.7065 14C43.0265 14 43.3305 14.064 43.6185 14.176C43.9065 14.288 44.1465 14.464 44.3705 14.688C44.5785 14.912 44.7545 15.184 44.8665 15.52C44.9945 15.84 45.0585 16.224 45.0585 16.64C45.0585 17.056 44.9945 17.44 44.8665 17.76C44.7545 18.096 44.5785 18.368 44.3705 18.592C44.1465 18.8 43.9065 18.976 43.6185 19.088C43.3305 19.2 43.0265 19.264 42.7065 19.264C42.3705 19.264 42.0665 19.2 41.7785 19.088C41.4905 18.976 41.2505 18.8 41.0265 18.592C40.8185 18.368 40.6425 18.096 40.5305 17.76C40.4025 17.44 40.3385 17.056 40.3385 16.64ZM52.5718 14.192V13.104C52.2038 12.96 51.8038 12.96 51.3078 12.96C51.0838 12.96 50.8598 12.976 50.6198 13.024C50.3798 13.072 50.1558 13.136 49.9318 13.232C49.7238 13.328 49.5158 13.44 49.3398 13.584C49.1638 13.728 49.0358 13.92 48.9398 14.128H48.9078V13.216H47.6758V20H48.9078V16.112C48.9078 15.808 48.9557 15.52 49.0518 15.248C49.1478 14.992 49.2758 14.768 49.4678 14.576C49.6438 14.368 49.8838 14.224 50.1558 14.112C50.4278 14.016 50.7478 13.952 51.1318 13.952C51.6118 13.952 52.2358 14.016 52.5718 14.192ZM54.5394 13.184H53.2914V14.144H54.5394V18.608C54.5394 19.152 54.7154 19.552 55.0674 19.84C55.4034 20.112 55.9154 20.256 56.5874 20.256C56.6994 20.256 56.8274 20.24 56.9874 20.224C57.1314 20.208 57.2594 20.192 57.3714 20.16V19.2C57.2754 19.232 57.1634 19.264 57.0354 19.264C56.9074 19.28 56.7954 19.296 56.6834 19.296C56.3954 19.296 56.1714 19.232 55.9954 19.136C55.8354 19.024 55.7554 18.832 55.7554 18.544V14.144H57.1954V13.184H55.7554V10.768H54.5394V13.184Z" fill="white"/>
</svg>
