<svg width="103" height="31" viewBox="0 0 103 31" fill="none" xmlns="http://www.w3.org/2000/svg">
<rect x="0.5" y="0.5" width="102" height="30" rx="15" fill="#0F0F0F" stroke="#CDF564"/>
<path d="M17.088 14.048H18.208C18.192 13.776 18.224 13.504 18.288 13.232C18.352 12.96 18.464 12.704 18.608 12.496C18.768 12.272 18.96 12.096 19.184 11.968C19.424 11.824 19.696 11.76 20.016 11.76C20.256 11.76 20.496 11.808 20.72 11.888C20.928 11.952 21.12 12.08 21.28 12.224C21.44 12.368 21.568 12.544 21.664 12.752C21.76 12.944 21.808 13.168 21.808 13.424C21.808 13.744 21.76 14.032 21.664 14.272C21.568 14.512 21.408 14.736 21.216 14.944C21.024 15.152 20.768 15.36 20.48 15.568C20.176 15.76 19.84 15.984 19.44 16.224C19.12 16.416 18.8 16.624 18.512 16.848C18.208 17.056 17.952 17.312 17.712 17.6C17.472 17.888 17.28 18.224 17.12 18.608C16.976 18.992 16.88 19.456 16.832 20H22.896V19.024H18.128C18.176 18.736 18.288 18.48 18.464 18.256C18.64 18.048 18.832 17.84 19.088 17.648C19.328 17.456 19.584 17.28 19.872 17.104C20.16 16.944 20.448 16.768 20.736 16.592C21.024 16.416 21.312 16.224 21.584 16.016C21.856 15.824 22.096 15.6 22.304 15.36C22.512 15.104 22.672 14.832 22.8 14.512C22.928 14.208 22.992 13.84 22.992 13.44C22.992 13.008 22.912 12.624 22.768 12.304C22.608 11.968 22.4 11.696 22.144 11.472C21.872 11.248 21.568 11.088 21.216 10.96C20.864 10.848 20.48 10.784 20.08 10.784C19.6 10.784 19.152 10.88 18.768 11.04C18.384 11.2 18.064 11.424 17.808 11.712C17.552 12.016 17.36 12.352 17.232 12.752C17.12 13.152 17.072 13.584 17.088 14.048ZM35.1761 14.192V14.208C35.0801 14 34.9681 13.808 34.8241 13.648C34.6161 13.424 34.3601 13.248 34.0241 13.136C33.6881 13.008 33.2881 12.944 32.7921 12.944C32.5681 12.944 32.3441 12.96 32.1041 13.008C31.8641 13.056 31.6401 13.12 31.4161 13.216C31.2081 13.312 31.0001 13.424 30.8241 13.584C30.6481 13.728 30.5201 13.904 30.4241 14.112H30.3921V13.2H29.1601V20H30.3921V16.096C30.3921 15.792 30.4401 15.504 30.5361 15.248C30.6321 14.976 30.7601 14.752 30.9521 14.56C31.1281 14.368 31.3681 14.208 31.6401 14.112C31.9121 14 32.2321 13.952 32.6161 13.952C33.0961 13.952 33.4641 14.064 33.7361 14.32C34.0081 14.56 34.1361 14.896 34.1361 15.328V20H35.3681V16.096C35.3681 15.792 35.4001 15.504 35.4961 15.232C35.5921 14.976 35.7361 14.752 35.9121 14.56C36.1041 14.352 36.3281 14.208 36.6001 14.096C36.8721 14 37.2081 13.936 37.5761 13.936C38.0561 13.936 38.4241 14.064 38.6961 14.32C38.9681 14.56 39.1121 14.896 39.1121 15.328V19.984H40.3441V15.456C40.3441 15.088 40.2961 14.752 40.2161 14.432C40.1361 14.128 39.9921 13.872 39.7841 13.648C39.5921 13.424 39.3201 13.248 38.9841 13.12C38.6641 13.008 38.2481 12.944 37.7521 12.944C37.5281 12.944 37.3041 12.96 37.0641 13.008C36.8241 13.056 36.6001 13.12 36.3921 13.216C36.1681 13.312 35.6561 13.6 35.1761 14.192ZM43.2515 12.368V11.136H42.0195V12.368H43.2515ZM43.2515 13.2H42.0195V20H43.2515V13.2ZM46.1578 13.2H44.9258V20H46.1578V16.096C46.1578 15.792 46.2057 15.504 46.3018 15.248C46.3978 14.976 46.5258 14.752 46.7178 14.56C46.8938 14.368 47.1338 14.208 47.4058 14.112C47.6778 14 47.9978 13.952 48.3818 13.952C48.8618 13.952 49.2298 14.064 49.5018 14.32C49.7738 14.56 49.9018 14.896 49.9018 15.328V20H51.1338V15.456C51.1338 15.088 51.1018 14.752 51.0218 14.448C50.9418 14.144 50.7978 13.872 50.5898 13.648C50.3818 13.424 50.1258 13.264 49.7898 13.136C49.4538 13.008 49.0538 12.944 48.5578 12.944C48.3338 12.944 48.1098 12.96 47.8698 13.008C47.6298 13.056 47.4058 13.12 47.1818 13.216C46.9738 13.312 46.7658 13.424 46.5898 13.584C46.4138 13.728 46.2858 13.904 46.1898 14.112H46.1578V13.2ZM62.2124 14.192V13.104C61.8444 12.96 61.4444 12.96 60.9484 12.96C60.7244 12.96 60.5004 12.976 60.2604 13.024C60.0204 13.072 59.7964 13.136 59.5724 13.232C59.3644 13.328 59.1564 13.44 58.9804 13.584C58.8044 13.728 58.6764 13.92 58.5804 14.128H58.5484V13.216H57.3164V20H58.5484V16.112C58.5484 15.808 58.5964 15.52 58.6924 15.248C58.7884 14.992 58.9164 14.768 59.1084 14.576C59.2844 14.368 59.5244 14.224 59.7964 14.112C60.0684 14.016 60.3884 13.952 60.7724 13.952C61.2524 13.952 61.8764 14.016 62.2124 14.192ZM69.68 17.904H68.4C68.288 18.352 68.064 18.704 67.712 18.928C67.36 19.152 66.912 19.264 66.368 19.264C65.936 19.264 65.568 19.2 65.248 19.072C64.944 18.944 64.688 18.784 64.48 18.56C64.272 18.352 64.128 18.112 64.032 17.84C63.952 17.568 63.904 17.264 63.92 16.96H69.808C69.824 16.544 69.792 16.096 69.68 15.632C69.568 15.152 69.376 14.72 69.104 14.32C68.816 13.936 68.448 13.6 67.984 13.344C67.52 13.088 66.944 12.96 66.24 12.96C65.712 12.96 65.216 13.056 64.752 13.232C64.304 13.408 63.92 13.664 63.584 13.984C63.264 14.32 63.008 14.688 62.816 15.136C62.64 15.584 62.544 16.064 62.544 16.592C62.56 17.136 62.656 17.616 62.816 18.08C62.96 18.528 63.2 18.912 63.52 19.232C63.84 19.568 64.224 19.808 64.688 20C65.152 20.176 65.696 20.256 66.32 20.256C67.216 20.256 67.952 20.064 68.544 19.664C69.136 19.264 69.52 18.688 69.68 17.904ZM68.432 15.952H63.92C63.936 15.68 64 15.424 64.112 15.184C64.224 14.944 64.384 14.736 64.576 14.56C64.768 14.368 64.992 14.24 65.264 14.128C65.536 14.032 65.84 13.968 66.176 13.968C66.496 13.968 66.784 14.032 67.056 14.128C67.328 14.24 67.568 14.368 67.76 14.544C67.952 14.72 68.112 14.928 68.24 15.184C68.352 15.424 68.416 15.68 68.432 15.952ZM76.4226 19.2V20.016H77.6546V14.88C77.6546 14.464 77.5586 14.144 77.3826 13.888C77.2066 13.632 76.9826 13.44 76.6946 13.312C76.4066 13.168 76.0866 13.072 75.7346 13.024C75.3826 12.976 75.0306 12.96 74.6626 12.96C74.2146 12.96 73.7986 13.008 73.3986 13.088C73.0146 13.168 72.6626 13.296 72.3426 13.488C72.0386 13.664 71.7986 13.904 71.6066 14.208C71.4306 14.496 71.3186 14.848 71.3026 15.28H72.6146C72.6466 14.768 72.8386 14.432 73.2066 14.256C73.5746 14.064 74.0386 13.968 74.5986 13.968C74.7906 13.968 74.9986 13.984 75.2066 14.016C75.4306 14.048 75.6066 14.096 75.7826 14.176C75.9586 14.256 76.0866 14.368 76.1986 14.528C76.3106 14.688 76.3586 14.88 76.3586 15.136C76.3586 15.36 76.2786 15.52 76.1506 15.632C76.0066 15.744 75.7986 15.824 75.5586 15.888C75.3186 15.952 75.0306 15.984 74.7106 16.016C74.3906 16.048 74.0386 16.096 73.6866 16.16C73.3506 16.224 73.0146 16.288 72.6946 16.368C72.3746 16.448 72.0866 16.576 71.8306 16.72C71.5906 16.88 71.3826 17.088 71.2226 17.344C71.0786 17.6 70.9986 17.92 70.9986 18.32C70.9986 18.672 71.0626 18.96 71.2066 19.216C71.3506 19.456 71.5266 19.664 71.7666 19.824C72.0066 19.968 72.2786 20.08 72.5986 20.16C72.9186 20.224 73.2706 20.256 73.6226 20.256C74.1826 20.256 74.6946 20.176 75.1746 20.016C75.6386 19.84 76.0546 19.568 76.4226 19.2ZM76.3426 16.496V17.68C76.3426 17.84 76.2946 18.016 76.1986 18.192C76.1186 18.384 75.9746 18.544 75.7826 18.704C75.5746 18.864 75.3346 18.992 75.0146 19.088C74.7106 19.2 74.3426 19.248 73.9106 19.248C73.7186 19.248 73.5106 19.232 73.3346 19.2C73.1426 19.152 72.9826 19.104 72.8546 19.024C72.7106 18.944 72.5986 18.832 72.5186 18.704C72.4226 18.576 72.3746 18.416 72.3746 18.224C72.3746 17.936 72.4546 17.712 72.5986 17.552C72.7586 17.376 72.9506 17.248 73.1746 17.168C73.4146 17.072 73.6866 17.008 73.9746 16.976C74.2786 16.928 74.5666 16.896 74.8546 16.864C75.1586 16.832 75.4306 16.784 75.7026 16.736C75.9586 16.688 76.1826 16.608 76.3426 16.496ZM86.0733 10.8H84.8413V14.08H84.8093C84.6013 13.68 84.2813 13.408 83.8493 13.232C83.4173 13.056 82.9373 12.96 82.4253 12.96C81.8333 12.96 81.3373 13.072 80.9053 13.264C80.4733 13.456 80.1213 13.728 79.8333 14.064C79.5453 14.4 79.3372 14.8 79.1933 15.232C79.0493 15.68 78.9693 16.144 78.9693 16.64C78.9693 17.136 79.0333 17.6 79.1773 18.048C79.3213 18.496 79.5293 18.88 79.8173 19.2C80.1053 19.536 80.4573 19.792 80.8893 19.984C81.3213 20.176 81.8173 20.256 82.3932 20.256C82.5693 20.256 82.7773 20.24 83.0013 20.208C83.2253 20.176 83.4493 20.112 83.6733 20.032C83.8973 19.952 84.1053 19.84 84.3133 19.696C84.5053 19.568 84.6813 19.392 84.8093 19.184H84.8413V20.016H86.0733V10.8ZM80.4093 15.6C80.5053 15.296 80.6493 15.024 80.8253 14.784C81.0173 14.528 81.2573 14.336 81.5613 14.192C81.8493 14.048 82.2013 13.984 82.5853 13.984C83.0013 13.984 83.3533 14.048 83.6573 14.208C83.9453 14.368 84.1693 14.56 84.3613 14.816C84.5373 15.056 84.6813 15.344 84.7613 15.648C84.8413 15.968 84.8733 16.288 84.8733 16.608C84.8733 16.96 84.8413 17.28 84.7453 17.6C84.6653 17.92 84.5213 18.208 84.3453 18.448C84.1533 18.688 83.9133 18.896 83.6093 19.04C83.3053 19.184 82.9373 19.264 82.5213 19.264C82.0893 19.264 81.7373 19.184 81.4493 19.04C81.1773 18.88 80.9373 18.672 80.7613 18.432C80.5853 18.176 80.4733 17.888 80.3932 17.568C80.3133 17.232 80.2812 16.896 80.2812 16.56C80.2812 16.24 80.3133 15.92 80.4093 15.6Z" fill="white"/>
</svg>
