<svg width="104" height="31" viewBox="0 0 104 31" fill="none" xmlns="http://www.w3.org/2000/svg">
<rect x="0.5" y="0.5" width="103" height="30" rx="15" fill="#0F0F0F" stroke="#CDF564"/>
<path d="M19.296 14.784V15.728C19.504 15.712 19.728 15.696 19.968 15.696C20.24 15.696 20.512 15.728 20.752 15.808C20.992 15.872 21.2 15.984 21.376 16.144C21.536 16.304 21.68 16.48 21.792 16.704C21.888 16.928 21.952 17.184 21.952 17.472C21.952 17.76 21.888 18.016 21.776 18.24C21.68 18.464 21.52 18.64 21.344 18.8C21.152 18.96 20.944 19.072 20.704 19.152C20.448 19.232 20.192 19.28 19.92 19.28C19.296 19.28 18.8 19.088 18.464 18.704C18.144 18.32 17.968 17.84 17.952 17.232H16.832C16.832 17.712 16.896 18.144 17.04 18.512C17.184 18.896 17.392 19.216 17.664 19.472C17.936 19.728 18.256 19.92 18.64 20.048C19.024 20.192 19.456 20.256 19.92 20.256C20.368 20.256 20.784 20.192 21.168 20.08C21.552 19.952 21.888 19.776 22.176 19.536C22.464 19.312 22.704 19.008 22.864 18.656C23.04 18.304 23.12 17.888 23.12 17.424C23.12 16.864 22.992 16.384 22.704 15.968C22.432 15.552 22.016 15.296 21.44 15.168V15.136C21.808 14.976 22.112 14.736 22.368 14.4C22.608 14.08 22.736 13.712 22.736 13.28C22.736 12.864 22.656 12.48 22.512 12.176C22.368 11.856 22.176 11.6 21.92 11.392C21.664 11.2 21.36 11.04 21.024 10.944C20.672 10.848 20.304 10.784 19.904 10.784C19.44 10.784 19.024 10.864 18.672 11.008C18.32 11.168 18.032 11.376 17.792 11.632C17.552 11.888 17.376 12.208 17.248 12.576C17.12 12.944 17.04 13.36 17.024 13.808H18.144C18.144 13.536 18.176 13.264 18.256 13.024C18.32 12.784 18.432 12.56 18.576 12.384C18.72 12.192 18.896 12.048 19.12 11.936C19.344 11.824 19.6 11.776 19.904 11.776C20.368 11.776 20.768 11.904 21.072 12.144C21.392 12.4 21.552 12.768 21.552 13.28C21.552 13.52 21.504 13.744 21.408 13.936C21.312 14.128 21.184 14.288 21.024 14.416C20.864 14.544 20.672 14.64 20.464 14.704C20.24 14.768 20.016 14.8 19.776 14.8H19.552H19.408C19.376 14.8 19.344 14.8 19.296 14.784ZM35.3168 14.192V14.208C35.2208 14 35.1088 13.808 34.9648 13.648C34.7568 13.424 34.5008 13.248 34.1648 13.136C33.8288 13.008 33.4288 12.944 32.9328 12.944C32.7088 12.944 32.4848 12.96 32.2448 13.008C32.0048 13.056 31.7808 13.12 31.5568 13.216C31.3488 13.312 31.1408 13.424 30.9648 13.584C30.7888 13.728 30.6608 13.904 30.5648 14.112H30.5328V13.2H29.3008V20H30.5328V16.096C30.5328 15.792 30.5807 15.504 30.6768 15.248C30.7728 14.976 30.9008 14.752 31.0928 14.56C31.2688 14.368 31.5088 14.208 31.7808 14.112C32.0528 14 32.3728 13.952 32.7568 13.952C33.2368 13.952 33.6048 14.064 33.8768 14.32C34.1488 14.56 34.2768 14.896 34.2768 15.328V20H35.5088V16.096C35.5088 15.792 35.5408 15.504 35.6368 15.232C35.7328 14.976 35.8768 14.752 36.0528 14.56C36.2448 14.352 36.4688 14.208 36.7408 14.096C37.0128 14 37.3488 13.936 37.7168 13.936C38.1968 13.936 38.5648 14.064 38.8368 14.32C39.1088 14.56 39.2528 14.896 39.2528 15.328V19.984H40.4848V15.456C40.4848 15.088 40.4368 14.752 40.3568 14.432C40.2768 14.128 40.1328 13.872 39.9248 13.648C39.7328 13.424 39.4608 13.248 39.1248 13.12C38.8048 13.008 38.3888 12.944 37.8928 12.944C37.6688 12.944 37.4448 12.96 37.2048 13.008C36.9648 13.056 36.7408 13.12 36.5328 13.216C36.3088 13.312 35.7968 13.6 35.3168 14.192ZM43.3921 12.368V11.136H42.1601V12.368H43.3921ZM43.3921 13.2H42.1601V20H43.3921V13.2ZM46.2984 13.2H45.0664V20H46.2984V16.096C46.2984 15.792 46.3464 15.504 46.4424 15.248C46.5384 14.976 46.6664 14.752 46.8584 14.56C47.0344 14.368 47.2744 14.208 47.5464 14.112C47.8184 14 48.1384 13.952 48.5224 13.952C49.0024 13.952 49.3704 14.064 49.6424 14.32C49.9144 14.56 50.0424 14.896 50.0424 15.328V20H51.2744V15.456C51.2744 15.088 51.2424 14.752 51.1624 14.448C51.0824 14.144 50.9384 13.872 50.7304 13.648C50.5224 13.424 50.2664 13.264 49.9304 13.136C49.5944 13.008 49.1944 12.944 48.6984 12.944C48.4744 12.944 48.2504 12.96 48.0104 13.008C47.7704 13.056 47.5464 13.12 47.3224 13.216C47.1144 13.312 46.9064 13.424 46.7304 13.584C46.5544 13.728 46.4264 13.904 46.3304 14.112H46.2984V13.2ZM62.353 14.192V13.104C61.985 12.96 61.585 12.96 61.089 12.96C60.865 12.96 60.641 12.976 60.401 13.024C60.161 13.072 59.937 13.136 59.713 13.232C59.505 13.328 59.297 13.44 59.121 13.584C58.945 13.728 58.817 13.92 58.721 14.128H58.689V13.216H57.457V20H58.689V16.112C58.689 15.808 58.737 15.52 58.833 15.248C58.929 14.992 59.057 14.768 59.249 14.576C59.425 14.368 59.665 14.224 59.937 14.112C60.209 14.016 60.529 13.952 60.913 13.952C61.393 13.952 62.017 14.016 62.353 14.192ZM69.8206 17.904H68.5406C68.4286 18.352 68.2046 18.704 67.8526 18.928C67.5006 19.152 67.0526 19.264 66.5086 19.264C66.0766 19.264 65.7086 19.2 65.3886 19.072C65.0846 18.944 64.8286 18.784 64.6206 18.56C64.4126 18.352 64.2686 18.112 64.1726 17.84C64.0926 17.568 64.0446 17.264 64.0606 16.96H69.9486C69.9646 16.544 69.9326 16.096 69.8206 15.632C69.7086 15.152 69.5166 14.72 69.2446 14.32C68.9566 13.936 68.5886 13.6 68.1246 13.344C67.6606 13.088 67.0846 12.96 66.3806 12.96C65.8526 12.96 65.3566 13.056 64.8926 13.232C64.4446 13.408 64.0606 13.664 63.7246 13.984C63.4046 14.32 63.1486 14.688 62.9566 15.136C62.7806 15.584 62.6846 16.064 62.6846 16.592C62.7006 17.136 62.7966 17.616 62.9566 18.08C63.1006 18.528 63.3406 18.912 63.6606 19.232C63.9806 19.568 64.3646 19.808 64.8286 20C65.2926 20.176 65.8366 20.256 66.4606 20.256C67.3566 20.256 68.0926 20.064 68.6846 19.664C69.2766 19.264 69.6606 18.688 69.8206 17.904ZM68.5726 15.952H64.0606C64.0766 15.68 64.1406 15.424 64.2526 15.184C64.3646 14.944 64.5246 14.736 64.7166 14.56C64.9086 14.368 65.1326 14.24 65.4046 14.128C65.6766 14.032 65.9806 13.968 66.3166 13.968C66.6366 13.968 66.9246 14.032 67.1966 14.128C67.4686 14.24 67.7086 14.368 67.9006 14.544C68.0926 14.72 68.2526 14.928 68.3806 15.184C68.4926 15.424 68.5566 15.68 68.5726 15.952ZM76.5633 19.2V20.016H77.7953V14.88C77.7953 14.464 77.6993 14.144 77.5233 13.888C77.3473 13.632 77.1233 13.44 76.8353 13.312C76.5473 13.168 76.2273 13.072 75.8753 13.024C75.5233 12.976 75.1713 12.96 74.8033 12.96C74.3553 12.96 73.9393 13.008 73.5393 13.088C73.1553 13.168 72.8033 13.296 72.4833 13.488C72.1793 13.664 71.9393 13.904 71.7473 14.208C71.5713 14.496 71.4593 14.848 71.4433 15.28H72.7553C72.7873 14.768 72.9793 14.432 73.3473 14.256C73.7153 14.064 74.1793 13.968 74.7393 13.968C74.9313 13.968 75.1393 13.984 75.3473 14.016C75.5713 14.048 75.7473 14.096 75.9233 14.176C76.0993 14.256 76.2273 14.368 76.3393 14.528C76.4513 14.688 76.4993 14.88 76.4993 15.136C76.4993 15.36 76.4193 15.52 76.2913 15.632C76.1473 15.744 75.9393 15.824 75.6993 15.888C75.4593 15.952 75.1713 15.984 74.8513 16.016C74.5312 16.048 74.1793 16.096 73.8273 16.16C73.4913 16.224 73.1553 16.288 72.8353 16.368C72.5153 16.448 72.2273 16.576 71.9713 16.72C71.7313 16.88 71.5233 17.088 71.3633 17.344C71.2193 17.6 71.1393 17.92 71.1393 18.32C71.1393 18.672 71.2033 18.96 71.3473 19.216C71.4913 19.456 71.6673 19.664 71.9073 19.824C72.1473 19.968 72.4193 20.08 72.7393 20.16C73.0593 20.224 73.4113 20.256 73.7633 20.256C74.3233 20.256 74.8353 20.176 75.3153 20.016C75.7793 19.84 76.1953 19.568 76.5633 19.2ZM76.4833 16.496V17.68C76.4833 17.84 76.4353 18.016 76.3393 18.192C76.2593 18.384 76.1153 18.544 75.9233 18.704C75.7153 18.864 75.4753 18.992 75.1553 19.088C74.8513 19.2 74.4833 19.248 74.0513 19.248C73.8593 19.248 73.6513 19.232 73.4753 19.2C73.2833 19.152 73.1233 19.104 72.9953 19.024C72.8513 18.944 72.7393 18.832 72.6593 18.704C72.5633 18.576 72.5153 18.416 72.5153 18.224C72.5153 17.936 72.5953 17.712 72.7393 17.552C72.8993 17.376 73.0913 17.248 73.3153 17.168C73.5553 17.072 73.8273 17.008 74.1153 16.976C74.4193 16.928 74.7073 16.896 74.9953 16.864C75.2993 16.832 75.5713 16.784 75.8433 16.736C76.0993 16.688 76.3233 16.608 76.4833 16.496ZM86.2139 10.8H84.9819V14.08H84.9499C84.7419 13.68 84.4219 13.408 83.9899 13.232C83.5579 13.056 83.0779 12.96 82.5659 12.96C81.9739 12.96 81.4779 13.072 81.0459 13.264C80.6139 13.456 80.2619 13.728 79.9739 14.064C79.6859 14.4 79.4779 14.8 79.3339 15.232C79.1899 15.68 79.1099 16.144 79.1099 16.64C79.1099 17.136 79.1739 17.6 79.3179 18.048C79.4619 18.496 79.6699 18.88 79.9579 19.2C80.2459 19.536 80.5979 19.792 81.0299 19.984C81.4619 20.176 81.9579 20.256 82.5339 20.256C82.7099 20.256 82.9179 20.24 83.1419 20.208C83.3659 20.176 83.5899 20.112 83.8139 20.032C84.0379 19.952 84.2459 19.84 84.4539 19.696C84.6459 19.568 84.8219 19.392 84.9499 19.184H84.9819V20.016H86.2139V10.8ZM80.5499 15.6C80.6459 15.296 80.7899 15.024 80.9659 14.784C81.1579 14.528 81.3979 14.336 81.7019 14.192C81.9899 14.048 82.3419 13.984 82.7259 13.984C83.1419 13.984 83.4939 14.048 83.7979 14.208C84.0859 14.368 84.3099 14.56 84.5019 14.816C84.6779 15.056 84.8219 15.344 84.9019 15.648C84.9819 15.968 85.0139 16.288 85.0139 16.608C85.0139 16.96 84.9819 17.28 84.8859 17.6C84.8059 17.92 84.6619 18.208 84.4859 18.448C84.2939 18.688 84.0539 18.896 83.7499 19.04C83.4459 19.184 83.0779 19.264 82.6619 19.264C82.2299 19.264 81.8779 19.184 81.5899 19.04C81.3179 18.88 81.0779 18.672 80.9019 18.432C80.7259 18.176 80.6139 17.888 80.5339 17.568C80.4539 17.232 80.4219 16.896 80.4219 16.56C80.4219 16.24 80.4539 15.92 80.5499 15.6Z" fill="white"/>
</svg>
