<svg width="31" height="31" viewBox="0 0 31 31" fill="none" xmlns="http://www.w3.org/2000/svg">
<rect x="0.5" y="0.5" width="30" height="30" rx="15" fill="#0F0F0F" stroke="#CDF564"/>
<g clip-path="url(#clip0)">
<path d="M21.8312 8.23866C20.18 6.58744 17.4935 6.58744 15.8423 8.23866L9.53669 14.5443C9.34208 14.7389 9.34208 15.0541 9.53669 15.2487C9.73129 15.4433 10.0466 15.4433 10.2412 15.2487L16.5468 8.94313C17.7708 7.72006 19.9027 7.72006 21.1267 8.94313C22.3892 10.2056 22.3892 12.2602 21.1267 13.5226L12.3218 22.4267C11.5687 23.1798 10.2566 23.1798 9.50348 22.4267C8.72653 21.6498 8.72653 20.3858 9.50348 19.6089L17.9562 11.0565C18.2384 10.7744 18.7307 10.7744 19.0129 11.0565C19.3043 11.3479 19.3043 11.8223 19.0129 12.1137L10.9129 20.3133C10.7449 20.4813 10.7449 20.8497 10.9129 21.0178C11.1075 21.2124 11.4228 21.2124 11.6174 21.0178L19.7173 12.8181C20.3975 12.138 20.3975 11.0322 19.7173 10.352C19.0586 9.69332 17.9094 9.69429 17.2517 10.352L8.79901 18.9044C7.64268 20.0607 7.64268 21.9748 8.79901 23.1312C9.36386 23.696 10.1145 24.0003 10.9129 24.0003C11.7112 24.0003 12.4619 23.696 13.0263 23.1312L21.8312 14.2271C23.4824 12.5759 23.4824 9.88985 21.8312 8.23866Z" fill="white"/>
</g>
<defs>
<clipPath id="clip0">
<rect width="17" height="17" fill="white" transform="translate(7 7)"/>
</clipPath>
</defs>
</svg>
