<svg width="103" height="31" viewBox="0 0 103 31" fill="none" xmlns="http://www.w3.org/2000/svg">
<rect x="0.5" y="0.5" width="102" height="30" rx="15" fill="#0F0F0F" stroke="#CDF564"/>
<path d="M18.784 11.936H22.528V10.944H17.952L17.088 15.776L18.032 15.84C18.256 15.568 18.512 15.36 18.784 15.2C19.072 15.04 19.408 14.96 19.776 14.96C20.08 14.96 20.368 15.008 20.624 15.104C20.88 15.216 21.104 15.36 21.296 15.552C21.472 15.744 21.616 15.968 21.712 16.224C21.808 16.48 21.872 16.768 21.872 17.072C21.872 17.44 21.808 17.76 21.712 18.032C21.6 18.304 21.456 18.544 21.28 18.72C21.104 18.912 20.896 19.04 20.656 19.136C20.416 19.232 20.16 19.28 19.904 19.28C19.616 19.28 19.36 19.232 19.136 19.152C18.896 19.072 18.704 18.944 18.528 18.8C18.352 18.64 18.224 18.464 18.128 18.256C18.016 18.048 17.968 17.824 17.952 17.6H16.832C16.848 18.016 16.928 18.4 17.088 18.72C17.232 19.056 17.456 19.344 17.728 19.568C18 19.792 18.304 19.952 18.656 20.08C19.008 20.192 19.392 20.256 19.792 20.256C20.336 20.256 20.816 20.16 21.216 20C21.616 19.824 21.968 19.6 22.24 19.312C22.496 19.008 22.704 18.688 22.848 18.304C22.976 17.936 23.04 17.552 23.04 17.168C23.04 16.624 22.96 16.16 22.816 15.76C22.656 15.36 22.432 15.024 22.16 14.768C21.904 14.496 21.584 14.288 21.216 14.16C20.848 14.032 20.448 13.968 20.048 13.968C19.728 13.968 19.408 14.016 19.088 14.128C18.768 14.24 18.512 14.416 18.32 14.64L18.288 14.608L18.784 11.936ZM35.2386 14.192V14.208C35.1426 14 35.0306 13.808 34.8866 13.648C34.6786 13.424 34.4226 13.248 34.0866 13.136C33.7506 13.008 33.3506 12.944 32.8546 12.944C32.6306 12.944 32.4066 12.96 32.1666 13.008C31.9266 13.056 31.7026 13.12 31.4786 13.216C31.2706 13.312 31.0626 13.424 30.8866 13.584C30.7106 13.728 30.5826 13.904 30.4866 14.112H30.4546V13.2H29.2226V20H30.4546V16.096C30.4546 15.792 30.5026 15.504 30.5986 15.248C30.6946 14.976 30.8226 14.752 31.0146 14.56C31.1906 14.368 31.4306 14.208 31.7026 14.112C31.9746 14 32.2946 13.952 32.6786 13.952C33.1586 13.952 33.5266 14.064 33.7986 14.32C34.0706 14.56 34.1986 14.896 34.1986 15.328V20H35.4306V16.096C35.4306 15.792 35.4626 15.504 35.5586 15.232C35.6546 14.976 35.7986 14.752 35.9746 14.56C36.1666 14.352 36.3906 14.208 36.6626 14.096C36.9346 14 37.2706 13.936 37.6386 13.936C38.1186 13.936 38.4866 14.064 38.7586 14.32C39.0306 14.56 39.1746 14.896 39.1746 15.328V19.984H40.4066V15.456C40.4066 15.088 40.3586 14.752 40.2786 14.432C40.1986 14.128 40.0546 13.872 39.8466 13.648C39.6546 13.424 39.3826 13.248 39.0466 13.12C38.7266 13.008 38.3106 12.944 37.8146 12.944C37.5906 12.944 37.3666 12.96 37.1266 13.008C36.8866 13.056 36.6626 13.12 36.4546 13.216C36.2306 13.312 35.7186 13.6 35.2386 14.192ZM43.314 12.368V11.136H42.082V12.368H43.314ZM43.314 13.2H42.082V20H43.314V13.2ZM46.2203 13.2H44.9883V20H46.2203V16.096C46.2203 15.792 46.2682 15.504 46.3643 15.248C46.4603 14.976 46.5883 14.752 46.7803 14.56C46.9563 14.368 47.1963 14.208 47.4683 14.112C47.7403 14 48.0603 13.952 48.4443 13.952C48.9243 13.952 49.2923 14.064 49.5643 14.32C49.8363 14.56 49.9643 14.896 49.9643 15.328V20H51.1963V15.456C51.1963 15.088 51.1643 14.752 51.0843 14.448C51.0043 14.144 50.8603 13.872 50.6523 13.648C50.4443 13.424 50.1883 13.264 49.8523 13.136C49.5163 13.008 49.1163 12.944 48.6203 12.944C48.3963 12.944 48.1723 12.96 47.9323 13.008C47.6923 13.056 47.4683 13.12 47.2443 13.216C47.0363 13.312 46.8283 13.424 46.6523 13.584C46.4763 13.728 46.3483 13.904 46.2523 14.112H46.2203V13.2ZM62.2749 14.192V13.104C61.9069 12.96 61.5069 12.96 61.0109 12.96C60.7869 12.96 60.5629 12.976 60.3229 13.024C60.0829 13.072 59.8589 13.136 59.6349 13.232C59.4269 13.328 59.2189 13.44 59.0429 13.584C58.8669 13.728 58.7389 13.92 58.6429 14.128H58.6109V13.216H57.3789V20H58.6109V16.112C58.6109 15.808 58.6589 15.52 58.7549 15.248C58.8509 14.992 58.9789 14.768 59.1709 14.576C59.3469 14.368 59.5869 14.224 59.8589 14.112C60.1309 14.016 60.4509 13.952 60.8349 13.952C61.3149 13.952 61.9389 14.016 62.2749 14.192ZM69.7425 17.904H68.4625C68.3505 18.352 68.1265 18.704 67.7745 18.928C67.4225 19.152 66.9745 19.264 66.4305 19.264C65.9985 19.264 65.6305 19.2 65.3105 19.072C65.0065 18.944 64.7505 18.784 64.5425 18.56C64.3345 18.352 64.1905 18.112 64.0945 17.84C64.0145 17.568 63.9665 17.264 63.9825 16.96H69.8705C69.8865 16.544 69.8545 16.096 69.7425 15.632C69.6305 15.152 69.4385 14.72 69.1665 14.32C68.8785 13.936 68.5105 13.6 68.0465 13.344C67.5825 13.088 67.0065 12.96 66.3025 12.96C65.7745 12.96 65.2785 13.056 64.8145 13.232C64.3665 13.408 63.9825 13.664 63.6465 13.984C63.3265 14.32 63.0705 14.688 62.8785 15.136C62.7025 15.584 62.6065 16.064 62.6065 16.592C62.6225 17.136 62.7185 17.616 62.8785 18.08C63.0225 18.528 63.2625 18.912 63.5825 19.232C63.9025 19.568 64.2865 19.808 64.7505 20C65.2145 20.176 65.7585 20.256 66.3825 20.256C67.2785 20.256 68.0145 20.064 68.6065 19.664C69.1985 19.264 69.5825 18.688 69.7425 17.904ZM68.4945 15.952H63.9825C63.9985 15.68 64.0625 15.424 64.1745 15.184C64.2865 14.944 64.4465 14.736 64.6385 14.56C64.8305 14.368 65.0545 14.24 65.3265 14.128C65.5985 14.032 65.9025 13.968 66.2385 13.968C66.5585 13.968 66.8465 14.032 67.1185 14.128C67.3905 14.24 67.6305 14.368 67.8225 14.544C68.0145 14.72 68.1745 14.928 68.3025 15.184C68.4145 15.424 68.4785 15.68 68.4945 15.952ZM76.4851 19.2V20.016H77.7171V14.88C77.7171 14.464 77.6211 14.144 77.4451 13.888C77.2691 13.632 77.0451 13.44 76.7571 13.312C76.4691 13.168 76.1491 13.072 75.7971 13.024C75.4451 12.976 75.0931 12.96 74.7251 12.96C74.2771 12.96 73.8611 13.008 73.4611 13.088C73.0771 13.168 72.7251 13.296 72.4051 13.488C72.1011 13.664 71.8611 13.904 71.6691 14.208C71.4931 14.496 71.3811 14.848 71.3651 15.28H72.6771C72.7091 14.768 72.9011 14.432 73.2691 14.256C73.6371 14.064 74.1011 13.968 74.6611 13.968C74.8531 13.968 75.0611 13.984 75.2691 14.016C75.4931 14.048 75.6691 14.096 75.8451 14.176C76.0211 14.256 76.1491 14.368 76.2611 14.528C76.3731 14.688 76.4211 14.88 76.4211 15.136C76.4211 15.36 76.3411 15.52 76.2131 15.632C76.0691 15.744 75.8611 15.824 75.6211 15.888C75.3811 15.952 75.0931 15.984 74.7731 16.016C74.4531 16.048 74.1011 16.096 73.7491 16.16C73.4131 16.224 73.0771 16.288 72.7571 16.368C72.4371 16.448 72.1491 16.576 71.8931 16.72C71.6531 16.88 71.4451 17.088 71.2851 17.344C71.1411 17.6 71.0611 17.92 71.0611 18.32C71.0611 18.672 71.1251 18.96 71.2691 19.216C71.4131 19.456 71.5891 19.664 71.8291 19.824C72.0691 19.968 72.3411 20.08 72.6611 20.16C72.9811 20.224 73.3331 20.256 73.6851 20.256C74.2451 20.256 74.7571 20.176 75.2371 20.016C75.7011 19.84 76.1171 19.568 76.4851 19.2ZM76.4051 16.496V17.68C76.4051 17.84 76.3571 18.016 76.2611 18.192C76.1811 18.384 76.0371 18.544 75.8451 18.704C75.6371 18.864 75.3971 18.992 75.0771 19.088C74.7731 19.2 74.4051 19.248 73.9731 19.248C73.7811 19.248 73.5731 19.232 73.3971 19.2C73.2051 19.152 73.0451 19.104 72.9171 19.024C72.7731 18.944 72.6611 18.832 72.5811 18.704C72.4851 18.576 72.4371 18.416 72.4371 18.224C72.4371 17.936 72.5171 17.712 72.6611 17.552C72.8211 17.376 73.0131 17.248 73.2371 17.168C73.4771 17.072 73.7491 17.008 74.0371 16.976C74.3411 16.928 74.6291 16.896 74.9171 16.864C75.2211 16.832 75.4931 16.784 75.7651 16.736C76.0211 16.688 76.2451 16.608 76.4051 16.496ZM86.1358 10.8H84.9038V14.08H84.8718C84.6638 13.68 84.3438 13.408 83.9118 13.232C83.4798 13.056 82.9998 12.96 82.4878 12.96C81.8958 12.96 81.3998 13.072 80.9678 13.264C80.5358 13.456 80.1838 13.728 79.8958 14.064C79.6078 14.4 79.3997 14.8 79.2558 15.232C79.1118 15.68 79.0318 16.144 79.0318 16.64C79.0318 17.136 79.0958 17.6 79.2398 18.048C79.3838 18.496 79.5918 18.88 79.8798 19.2C80.1678 19.536 80.5198 19.792 80.9518 19.984C81.3838 20.176 81.8798 20.256 82.4557 20.256C82.6318 20.256 82.8398 20.24 83.0638 20.208C83.2878 20.176 83.5118 20.112 83.7358 20.032C83.9598 19.952 84.1678 19.84 84.3758 19.696C84.5678 19.568 84.7438 19.392 84.8718 19.184H84.9038V20.016H86.1358V10.8ZM80.4718 15.6C80.5678 15.296 80.7118 15.024 80.8878 14.784C81.0798 14.528 81.3198 14.336 81.6238 14.192C81.9118 14.048 82.2638 13.984 82.6478 13.984C83.0638 13.984 83.4158 14.048 83.7198 14.208C84.0078 14.368 84.2318 14.56 84.4238 14.816C84.5998 15.056 84.7438 15.344 84.8238 15.648C84.9038 15.968 84.9358 16.288 84.9358 16.608C84.9358 16.96 84.9038 17.28 84.8078 17.6C84.7278 17.92 84.5838 18.208 84.4078 18.448C84.2158 18.688 83.9758 18.896 83.6718 19.04C83.3678 19.184 82.9998 19.264 82.5838 19.264C82.1518 19.264 81.7998 19.184 81.5118 19.04C81.2398 18.88 80.9998 18.672 80.8238 18.432C80.6478 18.176 80.5358 17.888 80.4557 17.568C80.3758 17.232 80.3438 16.896 80.3438 16.56C80.3438 16.24 80.3758 15.92 80.4718 15.6Z" fill="white"/>
</svg>
