<svg width="103" height="31" viewBox="0 0 103 31" fill="none" xmlns="http://www.w3.org/2000/svg">
<rect x="0.5" y="0.5" width="102" height="30" rx="15" fill="#0F0F0F" stroke="#CDF564"/>
<path d="M22.848 11.888V10.944H16.832V11.984H21.712C21.216 12.496 20.768 13.056 20.336 13.664C19.92 14.272 19.536 14.912 19.216 15.584C18.896 16.272 18.624 16.976 18.432 17.712C18.224 18.464 18.096 19.216 18.032 20H19.28C19.328 19.28 19.456 18.544 19.648 17.776C19.856 17.008 20.112 16.272 20.432 15.552C20.752 14.832 21.12 14.16 21.52 13.536C21.936 12.896 22.384 12.352 22.848 11.888ZM35.0511 14.192V14.208C34.9551 14 34.8431 13.808 34.6991 13.648C34.4911 13.424 34.2351 13.248 33.8991 13.136C33.5631 13.008 33.1631 12.944 32.6671 12.944C32.4431 12.944 32.2191 12.96 31.9791 13.008C31.7391 13.056 31.5151 13.12 31.2911 13.216C31.0831 13.312 30.8751 13.424 30.6991 13.584C30.5231 13.728 30.3951 13.904 30.2991 14.112H30.2671V13.2H29.0351V20H30.2671V16.096C30.2671 15.792 30.3151 15.504 30.4111 15.248C30.5071 14.976 30.6351 14.752 30.8271 14.56C31.0031 14.368 31.2431 14.208 31.5151 14.112C31.7871 14 32.1071 13.952 32.4911 13.952C32.9711 13.952 33.3391 14.064 33.6111 14.32C33.8831 14.56 34.0111 14.896 34.0111 15.328V20H35.2431V16.096C35.2431 15.792 35.2751 15.504 35.3711 15.232C35.4671 14.976 35.6111 14.752 35.7871 14.56C35.9791 14.352 36.2031 14.208 36.4751 14.096C36.7471 14 37.0831 13.936 37.4511 13.936C37.9311 13.936 38.2991 14.064 38.5711 14.32C38.8431 14.56 38.9871 14.896 38.9871 15.328V19.984H40.2191V15.456C40.2191 15.088 40.1711 14.752 40.0911 14.432C40.0111 14.128 39.8671 13.872 39.6591 13.648C39.4671 13.424 39.1951 13.248 38.8591 13.12C38.5391 13.008 38.1231 12.944 37.6271 12.944C37.4031 12.944 37.1791 12.96 36.9391 13.008C36.6991 13.056 36.4751 13.12 36.2671 13.216C36.0431 13.312 35.5311 13.6 35.0511 14.192ZM43.1265 12.368V11.136H41.8945V12.368H43.1265ZM43.1265 13.2H41.8945V20H43.1265V13.2ZM46.0328 13.2H44.8008V20H46.0328V16.096C46.0328 15.792 46.0807 15.504 46.1768 15.248C46.2728 14.976 46.4008 14.752 46.5928 14.56C46.7688 14.368 47.0088 14.208 47.2808 14.112C47.5528 14 47.8728 13.952 48.2568 13.952C48.7368 13.952 49.1048 14.064 49.3768 14.32C49.6488 14.56 49.7768 14.896 49.7768 15.328V20H51.0088V15.456C51.0088 15.088 50.9768 14.752 50.8968 14.448C50.8168 14.144 50.6728 13.872 50.4648 13.648C50.2568 13.424 50.0008 13.264 49.6648 13.136C49.3288 13.008 48.9288 12.944 48.4328 12.944C48.2088 12.944 47.9848 12.96 47.7448 13.008C47.5048 13.056 47.2808 13.12 47.0568 13.216C46.8488 13.312 46.6408 13.424 46.4648 13.584C46.2888 13.728 46.1608 13.904 46.0648 14.112H46.0328V13.2ZM62.0874 14.192V13.104C61.7194 12.96 61.3194 12.96 60.8234 12.96C60.5994 12.96 60.3754 12.976 60.1354 13.024C59.8954 13.072 59.6714 13.136 59.4474 13.232C59.2394 13.328 59.0314 13.44 58.8554 13.584C58.6794 13.728 58.5514 13.92 58.4554 14.128H58.4234V13.216H57.1914V20H58.4234V16.112C58.4234 15.808 58.4714 15.52 58.5674 15.248C58.6634 14.992 58.7914 14.768 58.9834 14.576C59.1594 14.368 59.3994 14.224 59.6714 14.112C59.9434 14.016 60.2634 13.952 60.6474 13.952C61.1274 13.952 61.7514 14.016 62.0874 14.192ZM69.555 17.904H68.275C68.163 18.352 67.939 18.704 67.587 18.928C67.235 19.152 66.787 19.264 66.243 19.264C65.811 19.264 65.443 19.2 65.123 19.072C64.819 18.944 64.563 18.784 64.355 18.56C64.147 18.352 64.003 18.112 63.907 17.84C63.827 17.568 63.779 17.264 63.795 16.96H69.683C69.699 16.544 69.667 16.096 69.555 15.632C69.443 15.152 69.251 14.72 68.979 14.32C68.691 13.936 68.323 13.6 67.859 13.344C67.395 13.088 66.819 12.96 66.115 12.96C65.587 12.96 65.091 13.056 64.627 13.232C64.179 13.408 63.795 13.664 63.459 13.984C63.139 14.32 62.883 14.688 62.691 15.136C62.515 15.584 62.419 16.064 62.419 16.592C62.435 17.136 62.531 17.616 62.691 18.08C62.835 18.528 63.075 18.912 63.395 19.232C63.715 19.568 64.099 19.808 64.563 20C65.027 20.176 65.571 20.256 66.195 20.256C67.091 20.256 67.827 20.064 68.419 19.664C69.011 19.264 69.395 18.688 69.555 17.904ZM68.307 15.952H63.795C63.811 15.68 63.875 15.424 63.987 15.184C64.099 14.944 64.259 14.736 64.451 14.56C64.643 14.368 64.867 14.24 65.139 14.128C65.411 14.032 65.715 13.968 66.051 13.968C66.371 13.968 66.659 14.032 66.931 14.128C67.203 14.24 67.443 14.368 67.635 14.544C67.827 14.72 67.987 14.928 68.115 15.184C68.227 15.424 68.291 15.68 68.307 15.952ZM76.2976 19.2V20.016H77.5296V14.88C77.5296 14.464 77.4336 14.144 77.2576 13.888C77.0816 13.632 76.8576 13.44 76.5696 13.312C76.2816 13.168 75.9616 13.072 75.6096 13.024C75.2576 12.976 74.9056 12.96 74.5376 12.96C74.0896 12.96 73.6736 13.008 73.2736 13.088C72.8896 13.168 72.5376 13.296 72.2176 13.488C71.9136 13.664 71.6736 13.904 71.4816 14.208C71.3056 14.496 71.1936 14.848 71.1776 15.28H72.4896C72.5216 14.768 72.7136 14.432 73.0816 14.256C73.4496 14.064 73.9136 13.968 74.4736 13.968C74.6656 13.968 74.8736 13.984 75.0816 14.016C75.3056 14.048 75.4816 14.096 75.6576 14.176C75.8336 14.256 75.9616 14.368 76.0736 14.528C76.1856 14.688 76.2336 14.88 76.2336 15.136C76.2336 15.36 76.1536 15.52 76.0256 15.632C75.8816 15.744 75.6736 15.824 75.4336 15.888C75.1936 15.952 74.9056 15.984 74.5856 16.016C74.2656 16.048 73.9136 16.096 73.5616 16.16C73.2256 16.224 72.8896 16.288 72.5696 16.368C72.2496 16.448 71.9616 16.576 71.7056 16.72C71.4656 16.88 71.2576 17.088 71.0976 17.344C70.9536 17.6 70.8736 17.92 70.8736 18.32C70.8736 18.672 70.9376 18.96 71.0816 19.216C71.2256 19.456 71.4016 19.664 71.6416 19.824C71.8816 19.968 72.1536 20.08 72.4736 20.16C72.7936 20.224 73.1456 20.256 73.4976 20.256C74.0576 20.256 74.5696 20.176 75.0496 20.016C75.5136 19.84 75.9296 19.568 76.2976 19.2ZM76.2176 16.496V17.68C76.2176 17.84 76.1696 18.016 76.0736 18.192C75.9936 18.384 75.8496 18.544 75.6576 18.704C75.4496 18.864 75.2096 18.992 74.8896 19.088C74.5856 19.2 74.2176 19.248 73.7856 19.248C73.5936 19.248 73.3856 19.232 73.2096 19.2C73.0176 19.152 72.8576 19.104 72.7296 19.024C72.5856 18.944 72.4736 18.832 72.3936 18.704C72.2976 18.576 72.2496 18.416 72.2496 18.224C72.2496 17.936 72.3296 17.712 72.4736 17.552C72.6336 17.376 72.8256 17.248 73.0496 17.168C73.2896 17.072 73.5616 17.008 73.8496 16.976C74.1536 16.928 74.4416 16.896 74.7296 16.864C75.0336 16.832 75.3056 16.784 75.5776 16.736C75.8336 16.688 76.0576 16.608 76.2176 16.496ZM85.9483 10.8H84.7163V14.08H84.6843C84.4763 13.68 84.1563 13.408 83.7243 13.232C83.2923 13.056 82.8123 12.96 82.3003 12.96C81.7083 12.96 81.2123 13.072 80.7803 13.264C80.3483 13.456 79.9963 13.728 79.7083 14.064C79.4203 14.4 79.2122 14.8 79.0683 15.232C78.9243 15.68 78.8443 16.144 78.8443 16.64C78.8443 17.136 78.9083 17.6 79.0523 18.048C79.1963 18.496 79.4043 18.88 79.6923 19.2C79.9803 19.536 80.3323 19.792 80.7643 19.984C81.1963 20.176 81.6923 20.256 82.2682 20.256C82.4443 20.256 82.6523 20.24 82.8763 20.208C83.1003 20.176 83.3243 20.112 83.5483 20.032C83.7723 19.952 83.9803 19.84 84.1883 19.696C84.3803 19.568 84.5563 19.392 84.6843 19.184H84.7163V20.016H85.9483V10.8ZM80.2843 15.6C80.3803 15.296 80.5243 15.024 80.7003 14.784C80.8923 14.528 81.1323 14.336 81.4363 14.192C81.7243 14.048 82.0763 13.984 82.4603 13.984C82.8763 13.984 83.2283 14.048 83.5323 14.208C83.8203 14.368 84.0443 14.56 84.2363 14.816C84.4123 15.056 84.5563 15.344 84.6363 15.648C84.7163 15.968 84.7483 16.288 84.7483 16.608C84.7483 16.96 84.7163 17.28 84.6203 17.6C84.5403 17.92 84.3963 18.208 84.2203 18.448C84.0283 18.688 83.7883 18.896 83.4843 19.04C83.1803 19.184 82.8123 19.264 82.3963 19.264C81.9643 19.264 81.6123 19.184 81.3243 19.04C81.0523 18.88 80.8123 18.672 80.6363 18.432C80.4603 18.176 80.3483 17.888 80.2682 17.568C80.1883 17.232 80.1562 16.896 80.1562 16.56C80.1562 16.24 80.1883 15.92 80.2843 15.6Z" fill="white"/>
</svg>
