<svg width="118" height="126" viewBox="0 0 118 126" fill="none" xmlns="http://www.w3.org/2000/svg">
<path d="M19.915 25.509H19.962V28H26.542V0.974998H19.727V10.469H19.68C18.364 8.683 15.544 7.508 11.737 7.508C5.251 7.508 0.222 11.738 0.222 18.224C0.222 25.18 5.298 28.752 11.737 28.752C14.839 28.752 17.706 28.047 19.915 25.509ZM7.225 18.13C7.225 14.323 10.186 12.349 13.617 12.349C17.001 12.349 19.962 14.323 19.962 18.13C19.962 21.937 17.001 23.911 13.617 23.911C10.186 23.911 7.225 21.937 7.225 18.13ZM30.0516 18.036C30.0516 25.556 35.5036 28.752 43.6816 28.752C51.8596 28.752 57.3116 25.556 57.3116 18.036C57.3116 10.469 51.8596 7.273 43.6816 7.273C35.5036 7.273 30.0516 10.469 30.0516 18.036ZM37.0546 18.036C37.0546 14.088 39.4986 11.926 43.6816 11.926C47.8646 11.926 50.3086 14.088 50.3086 18.036C50.3086 21.937 47.8646 24.099 43.6816 24.099C39.4986 24.099 37.0546 21.937 37.0546 18.036ZM33.122 61.015V73H39.937V59.464C39.937 54.2 35.848 52.508 31.712 52.508C27.952 52.508 25.085 53.871 23.205 56.268C22.171 54.012 20.009 52.508 16.061 52.508C12.113 52.508 8.87 54.247 7.648 55.939H7.554V53.025H1.021V73H7.789V62.19C7.789 59.041 10.092 57.584 13.006 57.584C14.886 57.584 17.095 58.336 17.095 61.015V73H23.863V62.19C23.863 59.041 26.166 57.584 28.986 57.584C30.96 57.584 33.122 58.336 33.122 61.015ZM42.6278 63.036C42.6278 70.556 48.0798 73.752 56.2578 73.752C64.4358 73.752 69.8878 70.556 69.8878 63.036C69.8878 55.469 64.4358 52.273 56.2578 52.273C48.0798 52.273 42.6278 55.469 42.6278 63.036ZM49.6308 63.036C49.6308 59.088 52.0748 56.926 56.2578 56.926C60.4408 56.926 62.8848 59.088 62.8848 63.036C62.8848 66.937 60.4408 69.099 56.2578 69.099C52.0748 69.099 49.6308 66.937 49.6308 63.036ZM79.4758 53.025H72.9428V73H79.7108V64.399C79.7108 60.498 81.9198 58.242 86.5258 58.242C87.7948 58.242 89.0168 58.524 90.2858 58.853V52.696C89.4868 52.555 88.5938 52.508 87.7948 52.508C83.9408 52.508 82.0138 53.871 79.5698 56.926H79.4758V53.025ZM117.334 67.031H110.096C109.109 68.77 107.182 69.663 104.456 69.663C99.8495 69.663 97.8285 66.749 97.8285 64.822V64.775H117.71V64.164C117.71 56.644 113.386 52.273 104.456 52.273C96.2775 52.273 90.8255 55.469 90.8255 63.036C90.8255 70.556 96.2775 73.752 104.456 73.752C110.66 73.752 115.36 71.778 117.334 67.031ZM110.707 60.874H97.8285V60.827C97.8285 60.31 98.9565 56.362 104.315 56.362C109.25 56.362 110.707 59.746 110.707 60.827V60.874ZM27.2 98.025H20.667V100.469H20.62C18.834 98.307 15.732 97.508 12.724 97.508C4.123 97.508 0.457 102.067 0.457 107.472C0.457 112.642 4.123 117.483 12.207 117.483C15.638 117.483 18.505 116.637 20.432 114.522V116.12C20.432 120.961 17.565 121.854 14.181 121.854C10.28 121.854 8.964 120.961 8.541 119.316H1.303C2.008 125.379 8.87 125.943 13.993 125.943C22.594 125.943 27.2 123.264 27.2 116.402V98.025ZM7.46 107.613C7.46 103.007 10.985 102.114 13.946 102.114C16.954 102.114 20.432 103.007 20.432 107.613C20.432 112.172 16.954 113.065 13.946 113.065C10.985 113.065 7.46 112.172 7.46 107.613ZM30.7401 108.036C30.7401 115.556 36.1921 118.752 44.3701 118.752C52.5481 118.752 58.0001 115.556 58.0001 108.036C58.0001 100.469 52.5481 97.273 44.3701 97.273C36.1921 97.273 30.7401 100.469 30.7401 108.036ZM37.7431 108.036C37.7431 104.088 40.1871 101.926 44.3701 101.926C48.5531 101.926 50.9971 104.088 50.9971 108.036C50.9971 111.937 48.5531 114.099 44.3701 114.099C40.1871 114.099 37.7431 111.937 37.7431 108.036ZM60.1151 108.036C60.1151 115.556 65.5671 118.752 73.7451 118.752C81.9231 118.752 87.3751 115.556 87.3751 108.036C87.3751 100.469 81.9231 97.273 73.7451 97.273C65.5671 97.273 60.1151 100.469 60.1151 108.036ZM67.1181 108.036C67.1181 104.088 69.5621 101.926 73.7451 101.926C77.9281 101.926 80.3721 104.088 80.3721 108.036C80.3721 111.937 77.9281 114.099 73.7451 114.099C69.5621 114.099 67.1181 111.937 67.1181 108.036ZM109.371 115.509H109.418V118H115.998V90.975H109.183V100.469H109.136C107.82 98.683 105 97.508 101.193 97.508C94.7071 97.508 89.6781 101.738 89.6781 108.224C89.6781 115.18 94.7541 118.752 101.193 118.752C104.295 118.752 107.162 118.047 109.371 115.509ZM96.6811 108.13C96.6811 104.323 99.6421 102.349 103.073 102.349C106.457 102.349 109.418 104.323 109.418 108.13C109.418 111.937 106.457 113.911 103.073 113.911C99.6421 113.911 96.6811 111.937 96.6811 108.13Z" fill="#0F0F0F"/>
</svg>
